<?xml version="1.0" encoding="utf-8"?>
<!-- Generator: Adobe Illustrator 26.1.0, SVG Export Plug-In . SVG Version: 6.00 Build 0)  -->
<svg version="1.1" id="Layer_1" xmlns="http://www.w3.org/2000/svg" xmlns:xlink="http://www.w3.org/1999/xlink" x="0px" y="0px"
	 viewBox="0 0 100 125" style="enable-background:new 0 0 100 125;" xml:space="preserve">
<style type="text/css">
	.st0{fill-rule:evenodd;clip-rule:evenodd;}
</style>
<path class="st0" d="M16.6,35.4h66.8c1.1,0,2.1,0.9,2.1,2.1v59.6c0,5.7-4.7,10.4-10.4,10.4H24.9c-5.7,0-10.4-4.7-10.4-10.4V37.4
	C14.5,36.3,15.4,35.4,16.6,35.4L16.6,35.4z M11.4,31.2c-2.7,0-2.7-4.1,0-4.1h24.5c0-3-0.3-5.2,2-7.6c1.2-1.2,2.9-2,4.8-2h14.6
	c3.8,0,6.8,3.1,6.8,6.8V27h24.5c2.7,0,2.7,4.1,0,4.1C62.9,31.2,37.1,31.2,11.4,31.2L11.4,31.2z M57.3,21.6H42.7
	c-3.2,0-2.7,3.7-2.7,5.4H60C60,25.3,60.6,21.6,57.3,21.6L57.3,21.6z M58.5,54.2v34.5c0,2.7,4.1,2.7,4.1,0V54.2
	C62.6,51.4,58.5,51.4,58.5,54.2L58.5,54.2z M37.4,54.2v34.5c0,2.7,4.1,2.7,4.1,0V54.2C41.5,51.4,37.4,51.4,37.4,54.2L37.4,54.2z
	 M81.4,39.5H18.6v57.6c0,3.5,2.8,6.3,6.3,6.3h50.1c3.5,0,6.3-2.8,6.3-6.3V39.5z"/>
</svg>
