<?xml version="1.0" encoding="utf-8"?>
<!-- Generator: Adobe Illustrator 26.1.0, SVG Export Plug-In . SVG Version: 6.00 Build 0)  -->
<svg version="1.1" id="Layer_1" xmlns="http://www.w3.org/2000/svg" xmlns:xlink="http://www.w3.org/1999/xlink" x="0px" y="0px"
	 viewBox="0 0 100 125" style="enable-background:new 0 0 100 125;" xml:space="preserve">
<g>
	<path d="M12,29v67c0,1.9,1.6,3.5,3.5,3.5h43c1.9,0,3.5-1.6,3.5-3.5V74.7c0-1.1-0.9-2-2-2s-2,0.9-2,2v20.8H16v-66h42v20.8
		c0,1.1,0.9,2,2,2s2-0.9,2-2V29c0-1.9-1.6-3.5-3.5-3.5h-43C13.6,25.5,12,27.1,12,29z"/>
	<path d="M88,62.5c0-1.1-0.9-2-2-2H38.4l8.9-8.9c0.8-0.8,0.8-2,0-2.8s-2-0.8-2.8,0L33.1,60.1c-1.3,1.3-1.3,3.5,0,4.8l11.3,11.3
		c0.4,0.4,0.9,0.6,1.4,0.6s1-0.2,1.4-0.6c0.8-0.8,0.8-2,0-2.8l-8.8-8.9H86C87.1,64.5,88,63.6,88,62.5z"/>
</g>
</svg>
