<?xml version="1.0" encoding="utf-8"?>
<!-- Generator: Adobe Illustrator 26.1.0, SVG Export Plug-In . SVG Version: 6.00 Build 0)  -->
<svg version="1.1" id="Layer_1" xmlns="http://www.w3.org/2000/svg" xmlns:xlink="http://www.w3.org/1999/xlink" x="0px" y="0px"
	 viewBox="0 0 100 125" style="enable-background:new 0 0 100 125;" xml:space="preserve">
<style type="text/css">
	.st0{fill-rule:evenodd;clip-rule:evenodd;}
</style>
<path class="st0" d="M42.6,87.2l-1.1-13.8c0-0.5,0.1-0.9,0.3-1.3l29.7-51.5c1.6-3.1,5.7-4.1,8.5-2.3l6.4,3.7l0,0
	c3,1.7,3.9,5.6,2.2,8.4L58.9,82.1L58,82.9v0l-12.5,6C44.2,89.6,42.7,88.7,42.6,87.2L42.6,87.2L42.6,87.2z M82.8,54.6v45.6
	c0,1.7-1.4,3.1-3.1,3.1h-62c-0.9,0-1.6-0.4-2.2-0.9l0,0c-0.6-0.6-0.9-1.4-0.9-2.2v-62c0-1.7,1.4-3.1,3.1-3.1h36.6
	c2.7,0,2.7-4.1,0-4.1H17.7c-4,0-7.2,3.3-7.2,7.3v62c0,2,0.8,3.8,2.1,5.1l0,0c1.1,1.3,3.2,2.1,5.1,2.1h62c4,0,7.2-3.3,7.2-7.3V54.6
	C86.9,51.9,82.8,51.9,82.8,54.6L82.8,54.6z M53.9,80.4c-2.3-2.1-5-3.7-8-4.6l0.6,8.2L53.9,80.4L53.9,80.4z M46.8,71.7
	c3.7,1.1,7.2,3.1,10,5.8l25.3-43.7l-10-5.8L46.8,71.7L46.8,71.7z M74.1,24.5l10,5.8c0.7-1.2,2.4-3.3,0.3-4.5l0,0
	C76.1,20.9,76.6,20.2,74.1,24.5z"/>
</svg>
